# xmcd
#
# Track frame offsets: 
#        150
#        19845
#        50626
#        75818
#        111718
#        153867
#        182178
#        208837
#
# Disc length: 3311 seconds
#
# Revision: 1
# Processed by: cddbd v1.5.2PL0 Copyright (c) Steve Scherf et al.
# Submitted via: ExactAudioCopyFreeDBPlugin 1.0
#
DISCID=660ced08
DTITLE=Paul Motian - Standards Plus One (1995)
DYEAR=1995
DGENRE=Jazz Drums
TTITLE0=They Didn't Believe Me
TTITLE1=How Deep Is the Ocean
TTITLE2=You and the Night and the Music
TTITLE3=You Took the Words Right Out of My Heart
TTITLE4=Someone to Watch Over Me
TTITLE5=Just One of Those Things
TTITLE6=It Might as Well Be Spring
TTITLE7=It Should've Happened a Long Time Ago
EXTD=
EXTT0=
EXTT1=
EXTT2=
EXTT3=
EXTT4=
EXTT5=
EXTT6=
EXTT7=
PLAYORDER=
